<svg width="244" height="45" viewBox="0 0 244 45" fill="none" xmlns="http://www.w3.org/2000/svg">
<path d="M112.989 20.8369V43.8569H119.543V22.413C119.543 20.6019 121.011 19.1335 122.822 19.1335H129.597V12.6626H121.168C116.65 12.6626 112.989 16.319 112.989 20.8369Z" fill="#1F1F1F"/>
<path d="M28.0898 11.9824C20.591 11.9824 14.7956 17.4548 14.7956 24.283V34.327C14.7711 34.8508 14.5313 35.3794 14.2425 35.8444C13.4985 37.0534 12.2601 37.7387 10.8455 37.7387H10.7819C9.38201 37.7387 8.09469 36.9898 7.39963 35.7759L7.27237 35.5507C6.99337 35.0661 6.84652 34.5179 6.84652 33.9599V32.9124H6.85142V12.6726H0.116223V29.8336H0.111328V33.5536C0.111328 35.399 0.600805 37.2149 1.52102 38.8008L1.6287 38.9917C3.49361 42.2174 6.9591 44.1802 10.6889 44.234C10.7428 44.234 10.7966 44.234 10.8504 44.234C14.5166 44.234 17.8451 42.3789 19.7736 39.256C20.3952 38.2477 20.8651 37.1415 21.1294 35.9961C21.3008 35.2521 21.3497 34.4836 21.3497 33.7201V25.1591C21.3497 22.5062 22.6321 17.9785 28.0898 17.9785C31.7119 17.9785 34.081 20.6608 34.081 25.1591V43.8229H40.7623V24.283C40.7623 16.9751 34.9571 11.9824 28.0898 11.9824Z" fill="#1F1F1F"/>
<path d="M58.9709 36.9504L50.6841 12.6772H43.6943L54.0223 40.7585C54.781 42.8192 56.7438 44.1897 58.9415 44.1897C61.1344 44.1897 63.0972 42.8241 63.8559 40.7683L74.2474 12.6772H67.1941L58.9709 36.9504Z" fill="#1F1F1F"/>
<path d="M91.8095 11.9824C82.5681 11.9824 76.4546 18.9721 76.4546 28.2135C76.4546 37.3911 82.573 44.4445 91.8095 44.4445C101.046 44.4445 107.164 37.3911 107.164 28.2135C107.164 18.977 101.046 11.9824 91.8095 11.9824ZM91.8095 38.326C86.8168 38.326 83.0087 34.0186 83.0087 28.2135C83.0087 22.3446 86.8168 18.1009 91.8095 18.1009C96.8657 18.1009 100.61 22.3446 100.61 28.2135C100.61 34.0186 96.8657 38.326 91.8095 38.326Z" fill="#1F1F1F"/>
<path d="M3.45836 6.68625H3.5122C5.35753 6.68625 6.85532 5.18845 6.85532 3.34312C6.85532 1.4978 5.35753 0 3.5122 0H3.45836C1.61303 0 0.115234 1.4978 0.115234 3.34312C0.115234 5.18845 1.61303 6.68625 3.45836 6.68625Z" fill="#1F1F1F"/>
<path d="M138.339 6.68625H138.393C140.238 6.68625 141.736 5.18845 141.736 3.34312C141.736 1.4978 140.238 0 138.393 0H138.339C136.494 0 134.996 1.4978 134.996 3.34312C134.996 5.18845 136.494 6.68625 138.339 6.68625Z" fill="#1F1F1F"/>
<path d="M240.474 37.249H240.42C238.574 37.249 237.077 38.7468 237.077 40.5921C237.077 42.4375 238.574 43.9353 240.42 43.9353H240.474C242.319 43.9353 243.817 42.4375 243.817 40.5921C243.817 38.7468 242.319 37.249 240.474 37.249Z" fill="#1F1F1F"/>
<path d="M218.74 11.9824C214.766 11.9824 211.286 13.5292 208.877 15.9863C206.533 13.4655 203.126 11.9824 199.391 11.9824C191.893 11.9824 186.097 17.4548 186.097 24.2781V43.818H192.651V25.1591C192.651 22.5062 193.934 17.9785 199.391 17.9785C203.013 17.9785 205.383 20.6608 205.383 25.1591V43.8229H205.446H212H212.064V24.283C212.064 24.2438 212.059 24.2095 212.059 24.1704C212.358 21.5174 213.914 17.9785 218.74 17.9785C222.362 17.9785 224.732 20.6608 224.732 25.1591V43.8229H231.413V24.283C231.413 16.9751 225.608 11.9824 218.74 11.9824Z" fill="#1F1F1F"/>
<path d="M166.43 11.9189C157.463 11.9189 151.731 18.8157 151.702 28.2675H151.697V32.7021C151.697 33.8426 151.291 34.9537 150.557 35.8299C149.632 36.9312 148.276 37.5626 146.837 37.5675H146.832C145.393 37.5675 144.037 36.9361 143.107 35.8299C142.368 34.9537 141.966 33.8426 141.966 32.6972V23.5832H141.962V12.6532H135.324V32.8441H135.334C135.368 35.497 136.323 38.0717 138.041 40.1079C140.234 42.7119 143.44 44.1999 146.837 44.1999H146.846C150.253 44.195 153.459 42.6972 155.647 40.0932C155.696 40.0345 155.74 39.9659 155.789 39.9023C158.428 42.7462 162.221 44.3761 166.807 44.3761C172.177 44.3761 176.92 41.9385 179.103 38.1353L174.11 35.0761C172.799 37.0095 170.488 38.6346 167.057 38.6346C162.064 38.6346 158.819 35.5753 158.129 30.2694H179.979C181.164 19.9708 176.357 11.9189 166.43 11.9189ZM158.188 25.404C159 20.661 161.932 17.6018 166.489 17.6018C171.609 17.6018 174.042 21.5959 174.042 25.404H158.188Z" fill="#1F1F1F"/>
</svg>
